<?xml version="1.0" encoding="UTF-8"?>
<svg version="1.1" xmlns="http://www.w3.org/2000/svg" width="500" height="500">
<path d="M0 0 C1.44536133 -0.05607422 1.44536133 -0.05607422 2.91992188 -0.11328125 C10.00131748 -0.20161467 10.00131748 -0.20161467 13.109375 2.41015625 C13.63015625 3.38855469 14.1509375 4.36695313 14.6875 5.375 C15.16159302 6.25720215 15.16159302 6.25720215 15.64526367 7.15722656 C16.68630593 9.14694225 17.65983227 11.1599841 18.625 13.1875 C20.80355031 17.67185238 22.97641963 22.0559355 25.6875 26.25 C27.6875 29.375 27.6875 29.375 27.6875 31.375 C28.3475 31.045 29.0075 30.715 29.6875 30.375 C30.0175 20.475 30.3475 10.575 30.6875 0.375 C36.6275 0.375 42.5675 0.375 48.6875 0.375 C48.6875 20.505 48.6875 40.635 48.6875 61.375 C44.24323507 62.26385299 40.12420409 62.6256411 35.625 62.6875 C34.91794922 62.71650391 34.21089844 62.74550781 33.48242188 62.77539062 C30.17730229 62.81573481 28.20323513 62.80648378 25.61914062 60.64453125 C23.69273896 58.38115538 22.39524755 56.28836713 21.06640625 53.63671875 C20.60556641 52.73373047 20.14472656 51.83074219 19.66992188 50.90039062 C19.20134766 49.96388672 18.73277344 49.02738281 18.25 48.0625 C17.31903204 46.20960259 16.38291518 44.3592823 15.44140625 42.51171875 C15.03220947 41.69405029 14.6230127 40.87638184 14.20141602 40.03393555 C12.2799587 36.65922315 9.9446719 33.53504066 7.6875 30.375 C7.3575 40.605 7.0275 50.835 6.6875 61.375 C2.99294362 62.11391128 0.17675653 62.51112483 -3.5 62.5 C-4.35980469 62.50257813 -5.21960938 62.50515625 -6.10546875 62.5078125 C-8.3125 62.375 -8.3125 62.375 -10.3125 61.375 C-10.4661073 53.56934745 -10.61428897 45.76361271 -10.7554636 37.95772648 C-10.8211825 34.33349515 -10.88879966 30.7093196 -10.96069336 27.08520508 C-11.02995158 23.59047391 -11.09430408 20.09568427 -11.15519524 16.60079765 C-11.19113704 14.61254858 -11.23221453 12.62439453 -11.27333069 10.63624573 C-11.29342697 9.43507614 -11.31352325 8.23390656 -11.33422852 6.99633789 C-11.35421402 5.93266495 -11.37419952 4.868992 -11.39479065 3.77308655 C-11.20367407 -1.79636875 -4.31413917 0.06273038 0 0 Z " fill="#030403" transform="translate(176.3125,229.625)"/>
<path d="M0 0 C5.75420577 4.52990667 6.94959022 9.39917697 7.79931641 16.4519043 C8.23282372 21.95618148 8.10036958 27.48269382 8.0625 33 C8.05798828 34.25167969 8.05347656 35.50335938 8.04882812 36.79296875 C8.03711415 39.86202941 8.02071073 42.93098907 8 46 C1.05059354 47.19839923 -5.08128576 47.42444117 -12 46 C-13.485 46.495 -13.485 46.495 -15 47 C-22.28248468 47.65812084 -29.08199186 47.76110429 -35 43 C-38.45306666 38.35994168 -38.72713352 33.58854048 -38 28 C-36.0310067 22.70833052 -31.46843309 20.14987906 -27 17 C-30.3 16.67 -33.6 16.34 -37 16 C-36.56416015 10.55200186 -35.48521211 7.23877149 -32 3 C-22.77412009 -4.38070393 -10.51201297 -5.1936823 0 0 Z M-17 9 C-17.99 10.98 -18.98 12.96 -20 15 C-18.81575674 16.41577477 -18.81575674 16.41577477 -15.4375 16.0625 C-13.7359375 16.0315625 -13.7359375 16.0315625 -12 16 C-11.32041397 13.60280568 -11.32041397 13.60280568 -11 11 C-11.66 10.34 -12.32 9.68 -13 9 C-14.32 9 -15.64 9 -17 9 Z M-19 28 C-19.81171228 30.55519921 -19.81171228 30.55519921 -20 33 C-17.7193293 34.21297649 -17.7193293 34.21297649 -15 35 C-12.7142289 34.23396041 -12.7142289 34.23396041 -11 33 C-11 30.69 -11 28.38 -11 26 C-15.40905511 25.95068751 -15.40905511 25.95068751 -19 28 Z " fill="#070808" transform="translate(374,245)"/>
<path d="M0 0 C5.45737495 5.778397 7.23184964 12.4024873 7.125 20.25 C6.36629845 28.05878984 4.21988068 34.68648179 -1.75 40.0625 C-8.91958776 45.08121143 -16.40950286 44.8698991 -24.875 44.25 C-31.09533099 42.99416031 -36.41336811 39.74976419 -40.09765625 34.51171875 C-44.48513482 27.16780301 -44.87694831 19.44051357 -43.25 11.125 C-41.63724419 5.48607367 -38.04186224 0.91681711 -33.4375 -2.625 C-21.51313122 -7.86008873 -10.96928149 -6.67695395 0 0 Z M-23.0625 7.8125 C-26.33741663 12.21669823 -27.11727505 16.49385827 -26.6875 21.875 C-26.13730325 25.58092296 -25.39870002 28.36577141 -22.875 31.25 C-19.87868569 32.43275565 -18.30369676 32.35966661 -15.1875 31.5625 C-12.40423902 29.98281133 -11.97394149 29.22157721 -10.875 26.25 C-10.5579028 22.87872817 -10.5579028 22.87872817 -10.625 19.25 C-10.61984375 18.033125 -10.6146875 16.81625 -10.609375 15.5625 C-10.85894797 12.45017821 -11.11680563 10.78179989 -12.875 8.25 C-16.74482258 5.67011828 -19.14507373 5.01433838 -23.0625 7.8125 Z " fill="#080808" transform="translate(273.875,247.75)"/>
<path d="M0 0 C6.27 0 12.54 0 19 0 C22.37928769 9.01143383 22.37928769 9.01143383 23.16796875 12.17578125 C23.33876953 12.85833984 23.50957031 13.54089844 23.68554688 14.24414062 C23.85119141 14.92669922 24.01683594 15.60925781 24.1875 16.3125 C24.36474609 17.01439453 24.54199219 17.71628906 24.72460938 18.43945312 C25.44792102 21.36900491 26 23.97061858 26 27 C26.99 27 27.98 27 29 27 C29.103125 26.030625 29.20625 25.06125 29.3125 24.0625 C29.83974212 20.35695324 30.9326639 17.01163842 32.16796875 13.48828125 C33.65207779 9.04988941 34.7980336 4.52168313 36 0 C41.94 0 47.88 0 54 0 C55.18899025 3.56697074 54.77307523 4.19361651 53.33984375 7.54296875 C52.77160889 8.89539673 52.77160889 8.89539673 52.19189453 10.27514648 C51.77794434 11.23622314 51.36399414 12.1972998 50.9375 13.1875 C50.09835474 15.18149076 49.26112745 17.17628971 48.42578125 19.171875 C48.01150879 20.15865234 47.59723633 21.14542969 47.17041016 22.16210938 C45.0704859 27.25379055 43.18076597 32.41808134 41.2890625 37.58984375 C40.86367188 38.71519531 40.43828125 39.84054687 40 41 C39.76845215 41.64670654 39.5369043 42.29341309 39.29833984 42.9597168 C38.5625 44.8828125 38.5625 44.8828125 37 48 C33.98956883 48.77855979 32.02236681 49.01045802 29 49 C28.21367187 49.05929687 27.42734375 49.11859375 26.6171875 49.1796875 C20.7484644 49.50895579 20.7484644 49.50895579 17.94921875 47.60546875 C15.06837502 43.75472172 13.9547592 39.56549157 12.5625 35 C11.95644431 33.09789753 11.34708421 31.19684466 10.734375 29.296875 C10.43982422 28.38228516 10.14527344 27.46769531 9.84179688 26.52539062 C7.88290076 20.64870229 5.37868859 15.01419171 2.8046875 9.38671875 C2.43601562 8.57847656 2.06734375 7.77023438 1.6875 6.9375 C1.19830078 5.89916016 1.19830078 5.89916016 0.69921875 4.83984375 C0 3 0 3 0 0 Z M27 30 C28 32 28 32 28 32 Z " fill="#060606" transform="translate(281,243)"/>
<path d="M0 0 C2.8125 2.5 2.8125 2.5 5 5 C5.495 5.495 5.495 5.495 6 6 C6.39692611 10.04864631 6.16491806 12.61280108 4.5625 16.375 C1.41465118 19.59962562 -0.32485161 19.70590995 -4.68359375 19.796875 C-11.41107872 20.38680623 -15.08897015 24.62013565 -19.6875 29.125 C-21.02047335 30.42366422 -22.35751258 31.71817254 -23.69921875 33.0078125 C-24.28533936 33.58160645 -24.87145996 34.15540039 -25.4753418 34.74658203 C-27 36 -27 36 -29 36 C-29.103125 36.721875 -29.20625 37.44375 -29.3125 38.1875 C-30.10413973 41.42602618 -30.89227569 43.40047335 -33 46 C-36.85884662 47.67459382 -39.11868942 48.18643109 -43.25 47.3125 C-45.88495281 46.05490889 -47.16680748 45.20604523 -49 43 C-49.4921875 41.16015625 -49.4921875 41.16015625 -49.875 39.0625 C-52.08165212 31.59193474 -59.26291147 26.83683213 -65 22 C-65.72058594 22.32613281 -66.44117188 22.65226562 -67.18359375 22.98828125 C-70.04167949 24.01497224 -72.04852528 24.23874223 -75.0625 24.1875 C-75.89910156 24.18105469 -76.73570312 24.17460937 -77.59765625 24.16796875 C-80 24 -80 24 -82.20703125 23.3984375 C-83.09455078 23.20121094 -83.09455078 23.20121094 -84 23 C-85.64594139 24.39588754 -85.64594139 24.39588754 -87 26 C-87.66 26 -88.32 26 -89 26 C-89 26.66 -89 27.32 -89 28 C-90.609375 29.62109375 -90.609375 29.62109375 -92.75 31.4375 C-93.44609375 32.03433594 -94.1421875 32.63117188 -94.859375 33.24609375 C-97 35 -97 35 -99.2421875 36.41796875 C-101.22260035 37.87238302 -101.22260035 37.87238302 -101.3984375 40.3046875 C-101.39070313 41.15289062 -101.38296875 42.00109375 -101.375 42.875 C-101.61697634 46.46782267 -101.86658349 48.63322988 -104.5 51.1875 C-109.0724713 53.55538692 -112.13036645 53.47844662 -117 52 C-119.5625 50.5625 -119.5625 50.5625 -121 48 C-121.87586915 43.0142833 -121.74859158 39.29067514 -119.1875 34.875 C-115.60805733 32.76944549 -114.87659029 32.96515246 -110.9375 33.375 C-106.73748311 33.61370191 -105.28336921 33.20225866 -101.79296875 30.7109375 C-99.68558248 28.81952062 -97.69720162 26.82944559 -95.7265625 24.796875 C-93.26895483 22.27589063 -90.85285466 20.0587611 -88 18 C-87.34 18 -86.68 18 -86 18 C-85.85304688 17.09507812 -85.85304688 17.09507812 -85.703125 16.171875 C-85.00827859 12.45804073 -84.43812581 9.62589402 -82.25 6.5 C-79.33410527 4.55607018 -77.51595996 4.06894039 -74 4 C-67.87892206 5.65995334 -67.87892206 5.65995334 -65.890625 8.69140625 C-64.81575297 11.12000862 -64 13.32339771 -64 16 C-63.44183594 16.22300781 -62.88367188 16.44601563 -62.30859375 16.67578125 C-59.320876 18.38954829 -57.4161877 20.67807958 -55.0625 23.1875 C-51.75582707 26.29835381 -50.0545946 27.89066076 -45.49609375 28.36328125 C-42.02664082 28.05362121 -42.02664082 28.05362121 -38.75 27.375 C-36 27 -36 27 -33 29 C-33 29.66 -33 30.32 -33 31 C-32.01 31 -31.02 31 -30 31 C-30 30.34 -30 29.68 -30 29 C-29.34 29 -28.68 29 -28 29 C-28 28.34 -28 27.68 -28 27 C-26.30725716 25.43567213 -24.54430148 23.94671428 -22.75 22.5 C-21.28820312 21.30890625 -21.28820312 21.30890625 -19.796875 20.09375 C-17.55105238 18.41251966 -15.5534197 17.11864101 -13 16 C-13.10699219 15.40832031 -13.21398437 14.81664062 -13.32421875 14.20703125 C-14.30094044 7.76907001 -14.30094044 7.76907001 -12.875 4.125 C-8.92921129 -0.34689387 -5.83136595 -1.94378865 0 0 Z M-5 5 C-7.32511472 6.26352052 -7.32511472 6.26352052 -9 8 C-8.96877057 9.96756452 -8.96877057 9.96756452 -8 12 C-5.00384054 13.3045656 -5.00384054 13.3045656 -2 14 C0.28728734 12.16116119 0.28728734 12.16116119 0.125 9.375 C0.08375 8.59125 0.0425 7.8075 0 7 C-2.26601865 5.70957237 -2.26601865 5.70957237 -5 5 Z M-77 10 C-79.28728734 11.83883881 -79.28728734 11.83883881 -79.125 14.625 C-79.08375 15.40875 -79.0425 16.1925 -79 17 C-76.64561267 18.42944945 -75.51967567 19.08661261 -72.75 18.625 C-72.1725 18.41875 -71.595 18.2125 -71 18 C-70.23043864 15.65466049 -70.23043864 15.65466049 -70 13 C-71.08333333 11.08333333 -71.08333333 11.08333333 -73 10 C-74.32 10 -75.64 10 -77 10 Z M-44 35 C-43.42547254 38.93075644 -43.42547254 38.93075644 -41 42 C-38.93400917 42.06754834 -38.93400917 42.06754834 -37 41 C-35.70339566 38.50965614 -35.70339566 38.50965614 -35 36 C-36.31201173 34.43750191 -36.31201173 34.43750191 -38 33 C-41.18490007 32.7226499 -41.18490007 32.7226499 -44 35 Z M-115 39 C-115.76716851 41.85078091 -115.76716851 41.85078091 -116 45 C-114.68681738 46.89958081 -114.68681738 46.89958081 -113 48 C-110.47636012 47.37466625 -110.47636012 47.37466625 -108 46 C-106.92727438 43.55460214 -106.92727438 43.55460214 -107 41 C-108.89755144 38.65026182 -108.89755144 38.65026182 -112.125 38.875 C-113.07375 38.91625 -114.0225 38.9575 -115 39 Z " fill="#3E3C35" transform="translate(371,172)"/>
<path d="M0 0 C1 1 2 2 3 3 C3.556875 3.495 4.11375 3.99 4.6875 4.5 C6 6 6 6 6 9 C6.66 9 7.32 9 8 9 C8 10.98 8 12.96 8 15 C8.33 14.67 8.66 14.34 9 14 C9.66 14 10.32 14 11 14 C10.505 13.01 10.505 13.01 10 12 C9.960008 10.00039988 9.95653201 7.99952758 10 6 C14.80024943 3.23985658 18.55817844 2.3627881 24 2 C24.66 2.33 25.32 2.66 26 3 C26 3.66 26 4.32 26 5 C27.43049683 4.97643433 27.43049683 4.97643433 28.88989258 4.95239258 C32.42886913 4.89808322 35.96780886 4.86364667 39.50708008 4.83520508 C41.03871861 4.82012064 42.57031398 4.79965022 44.10180664 4.77368164 C46.30365654 4.73728153 48.50493533 4.72027087 50.70703125 4.70703125 C51.39150833 4.69154739 52.07598541 4.67606354 52.78120422 4.66011047 C55.66669932 4.65908956 57.54298874 4.67216673 59.92871094 6.38354492 C61.33733033 8.50899364 61.43326967 9.96180443 61.4375 12.5 C61.45683594 13.2734375 61.47617187 14.046875 61.49609375 14.84375 C61 17 61 17 59.296875 18.796875 C56.47013578 20.27754793 54.94890497 20.17621751 51.8125 19.75 C50.93207031 19.64171875 50.05164063 19.5334375 49.14453125 19.421875 C47 19 47 19 46 18 C45.85884839 15.32941149 45.95752893 12.67567762 46 10 C45.01 10 44.02 10 43 10 C42.34 12.97 41.68 15.94 41 19 C39.27185839 19.19672365 37.54240803 19.38196799 35.8125 19.5625 C34.84957031 19.66691406 33.88664062 19.77132813 32.89453125 19.87890625 C30 20 30 20 27.81713867 19.51147461 C24.20957412 18.8564917 20.68200685 18.89566101 17.03125 18.9375 C16.27332153 18.94128662 15.51539307 18.94507324 14.73449707 18.94897461 C12.32293889 18.96114103 9.91150314 18.97976361 7.5 19 C4.3229196 19.02666081 1.14590061 19.04662691 -2.03125 19.0625 C-2.75534058 19.07079834 -3.47943115 19.07909668 -4.22546387 19.08764648 C-7.9630347 19.10569069 -11.35821086 18.82196339 -15 18 C-17.11899792 18.19222509 -17.11899792 18.19222509 -19.125 18.625 C-23 19 -23 19 -25 17.75 C-26 16 -26 16 -26 13 C-25.01 13 -24.02 13 -23 13 C-22.67 13.66 -22.34 14.32 -22 15 C-21.34 15 -20.68 15 -20 15 C-19.67 14.34 -19.34 13.68 -19 13 C-19.763125 12.9175 -20.52625 12.835 -21.3125 12.75 C-24 12 -24 12 -25.875 10.1875 C-27 8 -27 8 -26.8125 5.875 C-26 4 -26 4 -24 2 C-18.92609435 1.53019392 -16.94751701 2.03936225 -13 5 C-9.45828022 5.16669318 -9.45828022 5.16669318 -6 5 C-5.01 5.33 -4.02 5.66 -3 6 C-2.690625 5.195625 -2.38125 4.39125 -2.0625 3.5625 C-1 1 -1 1 0 0 Z M-2 6 C-1 8 -1 8 -1 8 Z M-2 9 C-2 10.65 -2 12.3 -2 14 C-1.67 14 -1.34 14 -1 14 C-1 12.35 -1 10.7 -1 9 C-1.33 9 -1.66 9 -2 9 Z M-15 10 C-15 11.65 -15 13.3 -15 15 C-14.67 15 -14.34 15 -14 15 C-14 13.35 -14 11.7 -14 10 C-14.33 10 -14.66 10 -15 10 Z M-10 10 C-10.33 11.65 -10.66 13.3 -11 15 C-8.525 15.495 -8.525 15.495 -6 16 C-5.67 14.35 -5.34 12.7 -5 11 C-6.65 10.67 -8.3 10.34 -10 10 Z M21 10 C21 11.98 21 13.96 21 16 C21.33 16 21.66 16 22 16 C22 14.02 22 12.04 22 10 C21.67 10 21.34 10 21 10 Z M24 10 C24 11.65 24 13.3 24 15 C24.33 15 24.66 15 25 15 C25 13.35 25 11.7 25 10 C24.67 10 24.34 10 24 10 Z M30 10 C30 11.98 30 13.96 30 16 C31.65 15.67 33.3 15.34 35 15 C35 13.35 35 11.7 35 10 C33.35 10 31.7 10 30 10 Z " fill="#171917" transform="translate(325,300)"/>
<path d="M0 0 C2.8125 2.5 2.8125 2.5 5 5 C5.495 5.495 5.495 5.495 6 6 C6.39692611 10.04864631 6.16491806 12.61280108 4.5625 16.375 C1.41465118 19.59962562 -0.32485161 19.70590995 -4.68359375 19.796875 C-11.41107872 20.38680623 -15.08897015 24.62013565 -19.6875 29.125 C-21.02047335 30.42366422 -22.35751258 31.71817254 -23.69921875 33.0078125 C-24.28533936 33.58160645 -24.87145996 34.15540039 -25.4753418 34.74658203 C-27 36 -27 36 -29 36 C-29.103125 36.721875 -29.20625 37.44375 -29.3125 38.1875 C-30.10413973 41.42602618 -30.89227569 43.40047335 -33 46 C-37.35128375 47.77274523 -40.47659051 48.37073015 -45 47 C-45 46.67 -45 46.34 -45 46 C-43.02 46 -41.04 46 -39 46 C-39 45.34 -39 44.68 -39 44 C-39.66 43.34 -40.32 42.68 -41 42 C-40.360625 41.79375 -39.72125 41.5875 -39.0625 41.375 C-36.65074923 40.10461791 -36.65074923 40.10461791 -36.25 36.875 C-36.1675 35.92625 -36.085 34.9775 -36 34 C-37.0725 34.020625 -38.145 34.04125 -39.25 34.0625 C-44.70347003 33.97160883 -44.70347003 33.97160883 -47 33 C-47.495 31.515 -47.495 31.515 -48 30 C-43.90578839 27.02239156 -41.02539212 26.53468591 -36 27 C-35.01 27.66 -34.02 28.32 -33 29 C-33 29.66 -33 30.32 -33 31 C-32.01 31 -31.02 31 -30 31 C-30 30.34 -30 29.68 -30 29 C-29.34 29 -28.68 29 -28 29 C-28 28.34 -28 27.68 -28 27 C-26.30725716 25.43567213 -24.54430148 23.94671428 -22.75 22.5 C-21.77546875 21.7059375 -20.8009375 20.911875 -19.796875 20.09375 C-17.55105238 18.41251966 -15.5534197 17.11864101 -13 16 C-13.10699219 15.40832031 -13.21398437 14.81664062 -13.32421875 14.20703125 C-14.30094044 7.76907001 -14.30094044 7.76907001 -12.875 4.125 C-8.92921129 -0.34689387 -5.83136595 -1.94378865 0 0 Z M-5 5 C-7.32511472 6.26352052 -7.32511472 6.26352052 -9 8 C-8.96877057 9.96756452 -8.96877057 9.96756452 -8 12 C-5.00384054 13.3045656 -5.00384054 13.3045656 -2 14 C0.28728734 12.16116119 0.28728734 12.16116119 0.125 9.375 C0.08375 8.59125 0.0425 7.8075 0 7 C-2.26601865 5.70957237 -2.26601865 5.70957237 -5 5 Z " fill="#454640" transform="translate(371,172)"/>
<path d="M0 0 C3.96064107 1.74268207 7.74436549 4.14674729 11 7 C11 7.66 11 8.32 11 9 C11.66 9 12.32 9 13 9 C13.50502884 12.53520187 13.19288614 13.74256535 11.015625 16.6484375 C7.0123929 19.77012885 4.35573455 19.65280469 -0.5625 19.4375 C-1.69461914 19.42879883 -1.69461914 19.42879883 -2.84960938 19.41992188 C-6.67550197 19.33565111 -9.75864995 19.14083863 -13 17 C-13 16.34 -13 15.68 -13 15 C-13.66 15 -14.32 15 -15 15 C-15.33 16.32 -15.66 17.64 -16 19 C-17.32 18.34 -18.64 17.68 -20 17 C-19.67 16.01 -19.34 15.02 -19 14 C-20.32 13.67 -21.64 13.34 -23 13 C-23.33 14.98 -23.66 16.96 -24 19 C-25.875 18.6875 -25.875 18.6875 -28 18 C-30.13412535 14.79881197 -30.4316893 12.73461318 -31 9 C-31.33 8.67 -31.66 8.34 -32 8 C-32.04080783 6.00041636 -32.04254356 3.99954746 -32 2 C-30.68 2 -29.36 2 -28 2 C-27.67 2.99 -27.34 3.98 -27 5 C-26.34 5.33 -25.68 5.66 -25 6 C-24.34 4.68 -23.68 3.36 -23 2 C-21.125 2.1875 -21.125 2.1875 -19 3 C-17.75 5.5625 -17.75 5.5625 -17 8 C-16.01 6.02 -15.02 4.04 -14 2 C-13.01 2 -12.02 2 -11 2 C-10.67 2.66 -10.34 3.32 -10 4 C-8.11235097 4.68472665 -8.11235097 4.68472665 -5.9375 5.125 C-4.83728516 5.37636719 -4.83728516 5.37636719 -3.71484375 5.6328125 C-3.14894531 5.75398438 -2.58304687 5.87515625 -2 6 C-1.34 4.02 -0.68 2.04 0 0 Z M-1 8 C0 12 0 12 0 12 Z M4 10 C3.67 11.32 3.34 12.64 3 14 C4.88316159 15.10836423 4.88316159 15.10836423 7 16 C7.66 15.67 8.32 15.34 9 15 C8.67 13.35 8.34 11.7 8 10 C6.68 10 5.36 10 4 10 Z M-13 13 C-12 15 -12 15 -12 15 Z M-9 14 C-8.67 14.66 -8.34 15.32 -8 16 C-7.34 15.67 -6.68 15.34 -6 15 C-6.99 14.67 -7.98 14.34 -9 14 Z " fill="#242625" transform="translate(282,300)"/>
<path d="M0 0 C0.28875 0.61875 0.5775 1.2375 0.875 1.875 C1.93720042 4.13325765 1.93720042 4.13325765 4 6 C4 6.99 4 7.98 4 9 C3.34 9 2.68 9 2 9 C2 9.66 2 10.32 2 11 C1.071875 10.773125 0.14375 10.54625 -0.8125 10.3125 C-3.96317152 9.62434952 -3.96317152 9.62434952 -5.75 11.4375 C-6.36875 12.2109375 -6.36875 12.2109375 -7 13 C-7.66 13 -8.32 13 -9 13 C-9 13.66 -9 14.32 -9 15 C-10.609375 16.62109375 -10.609375 16.62109375 -12.75 18.4375 C-13.44609375 19.03433594 -14.1421875 19.63117188 -14.859375 20.24609375 C-17 22 -17 22 -19.2421875 23.41796875 C-21.22260035 24.87238302 -21.22260035 24.87238302 -21.3984375 27.3046875 C-21.39070313 28.15289062 -21.38296875 29.00109375 -21.375 29.875 C-21.61697634 33.46782267 -21.86658349 35.63322988 -24.5 38.1875 C-29.0724713 40.55538692 -32.13036645 40.47844662 -37 39 C-39.5625 37.5625 -39.5625 37.5625 -41 35 C-41.87586915 30.0142833 -41.74859158 26.29067514 -39.1875 21.875 C-35.60805733 19.76944549 -34.87659029 19.96515246 -30.9375 20.375 C-26.73748311 20.61370191 -25.28336921 20.20225866 -21.79296875 17.7109375 C-19.68558248 15.81952062 -17.69720162 13.82944559 -15.7265625 11.796875 C-13.26895483 9.27589063 -10.85285466 7.0587611 -8 5 C-7.34 5 -6.68 5 -6 5 C-5.67 4.01 -5.34 3.02 -5 2 C-4.34 3.32 -3.68 4.64 -3 6 C-2.01 6 -1.02 6 0 6 C0 4.02 0 2.04 0 0 Z M-35 26 C-35.76716851 28.85078091 -35.76716851 28.85078091 -36 32 C-34.68681738 33.89958081 -34.68681738 33.89958081 -33 35 C-30.47636012 34.37466625 -30.47636012 34.37466625 -28 33 C-26.92727438 30.55460214 -26.92727438 30.55460214 -27 28 C-28.89755144 25.65026182 -28.89755144 25.65026182 -32.125 25.875 C-33.07375 25.91625 -34.0225 25.9575 -35 26 Z " fill="#48463F" transform="translate(291,185)"/>
<path d="M0 0 C2.8125 2.5 2.8125 2.5 5 5 C5.33 5.33 5.66 5.66 6 6 C6.39692611 10.04864631 6.16491806 12.61280108 4.5625 16.375 C1.38902895 19.62587278 -0.30113034 19.66370361 -4.6796875 19.8515625 C-6.94844303 19.99670174 -8.78183337 20.43049652 -10.9375 21.125 C-14 22 -14 22 -16 21 C-15.67 19.35 -15.34 17.7 -15 16 C-14.34 16 -13.68 16 -13 16 C-13.10699219 15.40832031 -13.21398437 14.81664062 -13.32421875 14.20703125 C-14.30094044 7.76907001 -14.30094044 7.76907001 -12.875 4.125 C-8.92921129 -0.34689387 -5.83136595 -1.94378865 0 0 Z M-5 5 C-7.32511472 6.26352052 -7.32511472 6.26352052 -9 8 C-8.96877057 9.96756452 -8.96877057 9.96756452 -8 12 C-5.00384054 13.3045656 -5.00384054 13.3045656 -2 14 C0.28728734 12.16116119 0.28728734 12.16116119 0.125 9.375 C0.08375 8.59125 0.0425 7.8075 0 7 C-2.26601865 5.70957237 -2.26601865 5.70957237 -5 5 Z " fill="#373530" transform="translate(371,172)"/>
<path d="M0 0 C0 0.66 0 1.32 0 2 C0.99 2.33 1.98 2.66 3 3 C3 3.99 3 4.98 3 6 C4.32 5.67 5.64 5.34 7 5 C7.33 5.66 7.66 6.32 8 7 C6.68 7 5.36 7 4 7 C4.020625 7.94875 4.04125 8.8975 4.0625 9.875 C4 13 4 13 3 15 C-0.56730318 16.37203968 -4.23233381 16.27908638 -8 16 C-10.92990998 11.60513504 -11.30981005 7.1244118 -10.5625 2 C-10.2840625 1.01 -10.2840625 1.01 -10 0 C-6.33694766 -0.74926071 -3.57644848 -1.2380014 0 0 Z M-5 7 C-5 8.98 -5 10.96 -5 13 C-4.67 13 -4.34 13 -4 13 C-4 11.02 -4 9.04 -4 7 C-4.33 7 -4.66 7 -5 7 Z M-2 7 C-2 8.65 -2 10.3 -2 12 C-1.67 12 -1.34 12 -1 12 C-1 10.35 -1 8.7 -1 7 C-1.33 7 -1.66 7 -2 7 Z " fill="#141514" transform="translate(351,303)"/>
<path d="M0 0 C2.8125 2.5 2.8125 2.5 5 5 C5.33 5.33 5.66 5.66 6 6 C6.39692611 10.04864631 6.16491806 12.61280108 4.5625 16.375 C1.33606777 19.6801257 -0.69990863 19.77580203 -5.171875 19.9921875 C-6.07679688 19.99605469 -6.07679688 19.99605469 -7 20 C-6.34 19.67 -5.68 19.34 -5 19 C-5 17.68 -5 16.36 -5 15 C-4.34 14.525625 -3.68 14.05125 -3 13.5625 C-0.73958333 12.15625 -0.73958333 12.15625 -0.5625 9.5 C-1.06795252 6.61169991 -1.8474333 5.88349586 -4 4 C-4 3.34 -4 2.68 -4 2 C-5.98 2 -7.96 2 -10 2 C-7.89466242 -2.21067515 -3.8668534 -1.08271895 0 0 Z " fill="#403F3A" transform="translate(371,172)"/>
<path d="M0 0 C4.67825497 0.46015623 6.91653972 1.83069941 10.8125 4.375 C10.8125 5.035 10.8125 5.695 10.8125 6.375 C12.1325 6.705 13.4525 7.035 14.8125 7.375 C14.173125 7.478125 13.53375 7.58125 12.875 7.6875 C11.8540625 8.0278125 11.8540625 8.0278125 10.8125 8.375 C10.4825 9.365 10.1525 10.355 9.8125 11.375 C8.8225 11.705 7.8325 12.035 6.8125 12.375 C6.8125 11.055 6.8125 9.735 6.8125 8.375 C5.884375 8.1584375 5.884375 8.1584375 4.9375 7.9375 C2.8125 7.375 2.8125 7.375 0.8125 6.375 C1.163125 6.973125 1.51375 7.57125 1.875 8.1875 C2.8125 10.375 2.8125 10.375 1.8125 13.375 C1.8125 12.715 1.8125 12.055 1.8125 11.375 C1.049375 11.2925 0.28625 11.21 -0.5 11.125 C-3.1875 10.375 -3.1875 10.375 -5.0625 8.5625 C-6.1875 6.375 -6.1875 6.375 -6 4.25 C-4.56822449 0.94590267 -3.5843992 0.42169402 0 0 Z " fill="#161515" transform="translate(304.1875,301.625)"/>
<path d="M0 0 C0.33 0.99 0.66 1.98 1 3 C1.99 3.33 2.98 3.66 4 4 C2.90234298 5.09765702 1.80394073 6.1945733 0.703125 7.2890625 C-0.62981525 8.62811716 -1.95019188 9.97968059 -3.265625 11.3359375 C-4.06484375 12.15320313 -4.8640625 12.97046875 -5.6875 13.8125 C-6.45449219 14.60269531 -7.22148437 15.39289063 -8.01171875 16.20703125 C-10 18 -10 18 -12 18 C-12.33 19.32 -12.66 20.64 -13 22 C-13.33 20.02 -13.66 18.04 -14 16 C-13.01 16 -12.02 16 -11 16 C-11 15.34 -11 14.68 -11 14 C-11.66 13.67 -12.32 13.34 -13 13 C-13 12.34 -13 11.68 -13 11 C-12.34 11 -11.68 11 -11 11 C-11 10.34 -11 9.68 -11 9 C-9.21895282 7.39821407 -7.37462722 5.86618074 -5.5 4.375 C-4.4790625 3.55773437 -3.458125 2.74046875 -2.40625 1.8984375 C-1.6121875 1.27195313 -0.818125 0.64546875 0 0 Z " fill="#494842" transform="translate(354,190)"/>
<path d="M0 0 C2.36505594 2.15005085 4.00661833 3.93707318 5 7 C4.86384919 9.72825268 4.45066966 12.29598206 4 15 C2.02 15.66 0.04 16.32 -2 17 C-2 15.02 -2 13.04 -2 11 C-2.99 11.99 -3.98 12.98 -5 14 C-5.268125 13.195625 -5.53625 12.39125 -5.8125 11.5625 C-6.204375 10.716875 -6.59625 9.87125 -7 9 C-7.99 8.67 -8.98 8.34 -10 8 C-9.67 7.01 -9.34 6.02 -9 5 C-6.03 5.495 -6.03 5.495 -3 6 C-2.690625 5.195625 -2.38125 4.39125 -2.0625 3.5625 C-1 1 -1 1 0 0 Z M-2 6 C-1 8 -1 8 -1 8 Z " fill="#363836" transform="translate(325,300)"/>
<path d="M0 0 C3.96064107 1.74268207 7.74436549 4.14674729 11 7 C11 7.66 11 8.32 11 9 C11.66 9 12.32 9 13 9 C13.20086443 12.71599191 13.1519437 13.77208445 11 17 C10.01 16.67 9.02 16.34 8 16 C8 14.35 8 12.7 8 11 C5.58380177 10.74969023 5.58380177 10.74969023 3 11 C2.01 12.485 2.01 12.485 1 14 C0.67 12.02 0.34 10.04 0 8 C-0.66 8 -1.32 8 -2 8 C-1.125 1.125 -1.125 1.125 0 0 Z " fill="#1A1D1B" transform="translate(282,300)"/>
<path d="M0 0 C1.65 0.33 3.3 0.66 5 1 C5.33 2.32 5.66 3.64 6 5 C6.66 5 7.32 5 8 5 C8.33 4.01 8.66 3.02 9 2 C9 3.32 9 4.64 9 6 C11.31 6 13.62 6 16 6 C16 6.99 16 7.98 16 9 C10.60932945 10.12827988 10.60932945 10.12827988 7.625 9.5 C4.99767343 8.99955684 3.47100352 9.17970013 0.875 9.625 C-3 10 -3 10 -5 8.75 C-6 7 -6 7 -6 4 C-5.01 4 -4.02 4 -3 4 C-2.67 4.66 -2.34 5.32 -2 6 C-0.68 6 0.64 6 2 6 C2 5.01 2 4.02 2 3 C1.34 2.67 0.68 2.34 0 2 C0 1.34 0 0.68 0 0 Z " fill="#414542" transform="translate(305,309)"/>
<path d="M0 0 C1.32 0 2.64 0 4 0 C4.20625 1.11375 4.4125 2.2275 4.625 3.375 C5.61628301 7.26599195 5.61628301 7.26599195 9.125 8.4375 C10.07375 8.623125 11.0225 8.80875 12 9 C12 9.99 12 10.98 12 12 C8.90826248 13.54586876 6.40570448 13.29359521 3 13 C0.5625 11.5 0.5625 11.5 -1 9 C-1.38098652 6.19702775 -1.23428133 3.85823224 -1 1 C-0.67 0.67 -0.34 0.34 0 0 Z " fill="#3A3932" transform="translate(251,211)"/>
<path d="M0 0 C0.33 1.32 0.66 2.64 1 4 C-4.93438408 7.07708804 -9.29873464 8.48736475 -16 8 C-16 7.34 -16 6.68 -16 6 C-15.34 6 -14.68 6 -14 6 C-13.67 4.68 -13.34 3.36 -13 2 C-11.68 2 -10.36 2 -9 2 C-9 1.34 -9 0.68 -9 0 C-5.62182575 -0.84454356 -3.32534757 -1.10844919 0 0 Z " fill="#33312C" transform="translate(309,188)"/>
<path d="M0 0 C0.33 0.99 0.66 1.98 1 3 C0 4 0 4 -3.0625 4.0625 C-4.031875 4.041875 -5.00125 4.02125 -6 4 C-6.33 5.32 -6.66 6.64 -7 8 C-8.65 8 -10.3 8 -12 8 C-12.33 8.66 -12.66 9.32 -13 10 C-13 9.34 -13 8.68 -13 8 C-14.65 8.33 -16.3 8.66 -18 9 C-16.75023244 5.34683329 -16.32901247 4.21934164 -13 2 C-10.37109375 1.875 -10.37109375 1.875 -7.4375 2 C-4.56999516 2.16722696 -4.56999516 2.16722696 -2 2 C-1.34 1.34 -0.68 0.68 0 0 Z " fill="#4F4F48" transform="translate(268,203)"/>
<path d="M0 0 C2.475 0.99 2.475 0.99 5 2 C5 2.66 5 3.32 5 4 C6.32 4.33 7.64 4.66 9 5 C8.360625 5.103125 7.72125 5.20625 7.0625 5.3125 C6.381875 5.539375 5.70125 5.76625 5 6 C4.67 6.99 4.34 7.98 4 9 C3.01 9.33 2.02 9.66 1 10 C1 8.68 1 7.36 1 6 C0.4225 5.855625 -0.155 5.71125 -0.75 5.5625 C-1.4925 5.376875 -2.235 5.19125 -3 5 C-3.721875 4.87625 -4.44375 4.7525 -5.1875 4.625 C-5.785625 4.41875 -6.38375 4.2125 -7 4 C-7.33 3.01 -7.66 2.02 -8 1 C-6.865625 1.020625 -5.73125 1.04125 -4.5625 1.0625 C-1.18424326 1.41577477 -1.18424326 1.41577477 0 0 Z " fill="#020302" transform="translate(310,304)"/>
<path d="M0 0 C0 3 0 3 -1 5 C-2.99609375 5.88671875 -2.99609375 5.88671875 -5.4375 6.6875 C-6.24058594 6.95949219 -7.04367187 7.23148438 -7.87109375 7.51171875 C-10 8 -10 8 -12 7 C-11.6875 4.625 -11.6875 4.625 -11 2 C-7.06425135 -0.62383243 -4.54354105 -1.51451368 0 0 Z " fill="#383430" transform="translate(367,186)"/>
<path d="M0 0 C0.66 0 1.32 0 2 0 C1.96666614 10.45016478 1.96666614 10.45016478 -0.19140625 13.91015625 C-2.82958856 16.27281038 -4.87825155 16.988727 -8.375 17.3125 C-9.24125 17.209375 -10.1075 17.10625 -11 17 C-7.25 15 -7.25 15 -5 15 C-5 14.01 -5 13.02 -5 12 C-5.66 11.67 -6.32 11.34 -7 11 C-6.34 10.34 -5.68 9.68 -5 9 C-4.30251417 7.68252676 -3.63040043 6.35085807 -3 5 C-2.67 5.66 -2.34 6.32 -2 7 C-1.34 7 -0.68 7 0 7 C-0.185625 6.030625 -0.37125 5.06125 -0.5625 4.0625 C-0.706875 3.051875 -0.85125 2.04125 -1 1 C-0.67 0.67 -0.34 0.34 0 0 Z " fill="#464641" transform="translate(268,208)"/>
<path d="M0 0 C2.4375 0.375 2.4375 0.375 5 1 C5.33 1.66 5.66 2.32 6 3 C5 5.5 5 5.5 3 8 C-1.35128375 9.77274523 -4.47659051 10.37073015 -9 9 C-9 8.67 -9 8.34 -9 8 C-7.02 8 -5.04 8 -3 8 C-3 7.34 -3 6.68 -3 6 C-3.66 5.34 -4.32 4.68 -5 4 C-4.360625 3.71125 -3.72125 3.4225 -3.0625 3.125 C-0.84793921 2.17176549 -0.84793921 2.17176549 0 0 Z " fill="#4A4944" transform="translate(335,210)"/>
<path d="M0 0 C0.99 0.33 1.98 0.66 3 1 C2.67 2.65 2.34 4.3 2 6 C1.01 6.33 0.02 6.66 -1 7 C-1 8.65 -1 10.3 -1 12 C-1.99 12.33 -2.98 12.66 -4 13 C-4 12.01 -4 11.02 -4 10 C-4.928125 9.566875 -4.928125 9.566875 -5.875 9.125 C-8 8 -8 8 -10 6 C-9.01 6 -8.02 6 -7 6 C-7 5.34 -7 4.68 -7 4 C-5.02 3.67 -3.04 3.34 -1 3 C-0.67 2.01 -0.34 1.02 0 0 Z " fill="#2D2A26" transform="translate(269,203)"/>
<path d="M0 0 C1.3921875 0.3403125 1.3921875 0.3403125 2.8125 0.6875 C1.25646229 4.50686528 -1.14354931 6.94794438 -4.1875 9.6875 C-4.8475 9.6875 -5.5075 9.6875 -6.1875 9.6875 C-7.24359899 6.51920302 -7.31805309 5.70230825 -6.1875 2.6875 C-4.24176308 -0.28230898 -3.62018519 -0.35492012 0 0 Z " fill="#3D3C37" transform="translate(277.1875,198.3125)"/>
<path d="M0 0 C1.29608947 0.93137592 2.58671632 1.8703566 3.875 2.8125 C4.59429687 3.33457031 5.31359375 3.85664063 6.0546875 4.39453125 C8 6 8 6 10 9 C8.68 8.67 7.36 8.34 6 8 C5.67 8.99 5.34 9.98 5 11 C2.13302508 9.71480435 0.02392288 8.42870746 -2 6 C-2 4 -2 4 0 2 C0 1.34 0 0.68 0 0 Z " fill="#494843" transform="translate(309,189)"/>
<path d="M0 0 C2.375 2.0625 2.375 2.0625 4 4 C3.67 4.66 3.34 5.32 3 6 C2.34 6 1.68 6 1 6 C1 7.98 1 9.96 1 12 C0.67 12 0.34 12 0 12 C-0.103125 11.236875 -0.20625 10.47375 -0.3125 9.6875 C-1.05600892 6.78105605 -1.84858032 5.96433971 -4 4 C-4 3.34 -4 2.68 -4 2 C-5.98 2 -7.96 2 -10 2 C-7.8909379 -2.2181242 -3.88225891 -1.02998706 0 0 Z " fill="#555450" transform="translate(371,172)"/>
<path d="M0 0 C0.33 0 0.66 0 1 0 C1.12375 1.0725 1.2475 2.145 1.375 3.25 C1.988729 7.44760544 1.988729 7.44760544 4 11 C6.55519921 11.81171228 6.55519921 11.81171228 9 12 C9.33 12.99 9.66 13.98 10 15 C7.01787087 16.49106457 4.28390342 16.11941467 1 16 C0 15 0 15 -0.09765625 11.62109375 C-0.09098369 10.22652923 -0.07902532 8.83198257 -0.0625 7.4375 C-0.05798828 6.72658203 -0.05347656 6.01566406 -0.04882812 5.28320312 C-0.03700864 3.52209987 -0.01907263 1.76103964 0 0 Z " fill="#4C4F4C" transform="translate(282,303)"/>
<path d="M0 0 C7.57142857 3 7.57142857 3 10 6 C9.34 7.32 8.68 8.64 8 10 C5.04191542 8.62660359 2.35860436 7.27436849 0 5 C-0.25 2.3125 -0.25 2.3125 0 0 Z " fill="#312F2A" transform="translate(314,196)"/>
<path d="M0 0 C1.65 0.33 3.3 0.66 5 1 C4.01 3.97 3.02 6.94 2 10 C-0.31 9.67 -2.62 9.34 -5 9 C-5.33 7.35 -5.66 5.7 -6 4 C-5.01 4 -4.02 4 -3 4 C-2.67 4.66 -2.34 5.32 -2 6 C-0.68 6 0.64 6 2 6 C2 5.01 2 4.02 2 3 C1.34 2.67 0.68 2.34 0 2 C0 1.34 0 0.68 0 0 Z " fill="#434842" transform="translate(305,309)"/>
<path d="M0 0 C3.67230705 3.07999946 4.56802365 5.2482602 5 10 C3.02 10 1.04 10 -1 10 C-2.15837626 5.94568308 -1.83691257 3.78187881 0 0 Z " fill="#403F39" transform="translate(302,178)"/>
<path d="M0 0 C1.48828125 1.14453125 1.48828125 1.14453125 3 3 C3.29296875 5.69921875 3.29296875 5.69921875 3.1875 8.6875 C3.16042969 9.68136719 3.13335937 10.67523438 3.10546875 11.69921875 C3.07066406 12.45847656 3.03585937 13.21773438 3 14 C2.01 14 1.02 14 0 14 C-0.33 11.36 -0.66 8.72 -1 6 C-1.66 6.66 -2.32 7.32 -3 8 C-3.33 7.34 -3.66 6.68 -4 6 C-2.68 4.02 -1.36 2.04 0 0 Z " fill="#000100" transform="translate(325,300)"/>
<path d="M0 0 C0.99 0.33 1.98 0.66 3 1 C3 2.98 3 4.96 3 7 C0.6875 7.625 0.6875 7.625 -2 8 C-2.99 7.34 -3.98 6.68 -5 6 C-4.34 5.67 -3.68 5.34 -3 5 C-3.99 4.01 -4.98 3.02 -6 2 C-4.02 2 -2.04 2 0 2 C0 1.34 0 0.68 0 0 Z " fill="#030403" transform="translate(279,311)"/>
<path d="M0 0 C0 1.66666667 0 3.33333333 0 5 C-0.66 5 -1.32 5 -2 5 C-2 5.66 -2 6.32 -2 7 C-1.01 7.33 -0.02 7.66 1 8 C0.34 8 -0.32 8 -1 8 C-1 8.66 -1 9.32 -1 10 C-3.31 9.34 -5.62 8.68 -8 8 C-5.33333333 5.33333333 -2.66666667 2.66666667 0 0 Z " fill="#52524D" transform="translate(283,190)"/>
<path d="M0 0 C0 0.99 0 1.98 0 3 C-3.04300316 4.52150158 -5.654085 4.23899393 -9 4 C-9.66 3.01 -10.32 2.02 -11 1 C-3.375 -1.125 -3.375 -1.125 0 0 Z " fill="#2A2722" transform="translate(263,220)"/>
<path d="M0 0 C1.32 0 2.64 0 4 0 C4 3.63 4 7.26 4 11 C0 8 0 8 -0.390625 5.95703125 C-0.26041667 3.97135417 -0.13020833 1.98567708 0 0 Z " fill="#3F423F" transform="translate(335,306)"/>
<path d="M0 0 C0.86625 0.3403125 0.86625 0.3403125 1.75 0.6875 C1.09 0.6875 0.43 0.6875 -0.25 0.6875 C-0.25 1.3475 -0.25 2.0075 -0.25 2.6875 C-1.24 3.1825 -1.24 3.1825 -2.25 3.6875 C-2.25 5.3375 -2.25 6.9875 -2.25 8.6875 C-4.725 7.6975 -4.725 7.6975 -7.25 6.6875 C-6.87492618 3.96821483 -6.40781339 2.84531339 -4.4375 0.875 C-2.25 -0.3125 -2.25 -0.3125 0 0 Z " fill="#282520" transform="translate(343.25,203.3125)"/>
<path d="M0 0 C2.64 0.33 5.28 0.66 8 1 C7.67 2.32 7.34 3.64 7 5 C2.545 5.495 2.545 5.495 -2 6 C-1.34 5.67 -0.68 5.34 0 5 C0 3.68 0 2.36 0 1 C0 0.67 0 0.34 0 0 Z " fill="#4C4B46" transform="translate(366,186)"/>
<path d="M0 0 C1.32 0.33 2.64 0.66 4 1 C4 1.66 4 2.32 4 3 C4.99 3.33 5.98 3.66 7 4 C6.67 4.66 6.34 5.32 6 6 C3.69 6 1.38 6 -1 6 C-1.33 5.01 -1.66 4.02 -2 3 C-1.34 3 -0.68 3 0 3 C0 2.01 0 1.02 0 0 Z " fill="#2C2B26" transform="translate(326,212)"/>
<path d="M0 0 C0.75 1.75 0.75 1.75 1 4 C-0.6875 6.25 -0.6875 6.25 -3 8 C-4.32 8 -5.64 8 -7 8 C-7 7.34 -7 6.68 -7 6 C-6.34 6 -5.68 6 -5 6 C-4.67 4.68 -4.34 3.36 -4 2 C-2.68 2 -1.36 2 0 2 C0 1.34 0 0.68 0 0 Z " fill="#393730" transform="translate(300,188)"/>
<path d="M0 0 C0.33 1.32 0.66 2.64 1 4 C2.32 4.33 3.64 4.66 5 5 C1.69903842 5.8252404 -0.8033 6.37001429 -4 5 C-4.33 4.01 -4.66 3.02 -5 2 C-2 0 -2 0 0 0 Z " fill="#525047" transform="translate(328,200)"/>
<path d="M0 0 C0.33 1.32 0.66 2.64 1 4 C-0.65 4.66 -2.3 5.32 -4 6 C-4.33 5.34 -4.66 4.68 -5 4 C-4.01 3.67 -3.02 3.34 -2 3 C-3.89179203 2.3185177 -3.89179203 2.3185177 -6 2 C-6.66 2.66 -7.32 3.32 -8 4 C-8 2.68 -8 1.36 -8 0 C-4.94736336 -0.98120464 -3.05263664 -0.98120464 0 0 Z " fill="#25241F" transform="translate(309,188)"/>
<path d="M0 0 C0.37125 0.515625 0.7425 1.03125 1.125 1.5625 C3.03173152 3.36319983 3.03173152 3.36319983 6.1875 2.6875 C7.115625 2.460625 8.04375 2.23375 9 2 C8.34 3.65 7.68 5.3 7 7 C4.23723823 6.47731534 1.6739124 5.89130413 -1 5 C-0.67 3.35 -0.34 1.7 0 0 Z " fill="#434745" transform="translate(270,312)"/>
<path d="M0 0 C1.32 0 2.64 0 4 0 C3 3 2 6 1 9 C0.34 9 -0.32 9 -1 9 C-1.125 2.25 -1.125 2.25 0 0 Z " fill="#282420" transform="translate(324,205)"/>
<path d="M0 0 C1.32 0.33 2.64 0.66 4 1 C3.67 2.65 3.34 4.3 3 6 C0.69 5.67 -1.62 5.34 -4 5 C-3.525625 4.54625 -3.05125 4.0925 -2.5625 3.625 C-0.90972192 2.06741796 -0.90972192 2.06741796 0 0 Z " fill="#3C3F36" transform="translate(298,177)"/>
<path d="M0 0 C1.6415049 3.2830098 0.51888624 6.42545033 0 10 C-1.32 10.33 -2.64 10.66 -4 11 C-3.67 7.7 -3.34 4.4 -3 1 C-2.01 0.67 -1.02 0.34 0 0 Z " fill="#717370" transform="translate(329,305)"/>
<path d="M0 0 C2.14720899 2.14720899 2.5434221 3.07790143 3 6 C2.67 6.66 2.34 7.32 2 8 C2.99 7.67 3.98 7.34 5 7 C5.33 7.66 5.66 8.32 6 9 C4.02 9 2.04 9 0 9 C-1.10844919 5.67465243 -0.84454356 3.37817425 0 0 Z " fill="#080908" transform="translate(321,309)"/>
<path d="M0 0 C1.32 0 2.64 0 4 0 C4.33 1.65 4.66 3.3 5 5 C3.35 4.67 1.7 4.34 0 4 C-0.66 4.99 -1.32 5.98 -2 7 C-1.125 1.125 -1.125 1.125 0 0 Z " fill="#424442" transform="translate(355,305)"/>
<path d="M0 0 C0.66 0 1.32 0 2 0 C2 2.64 2 5.28 2 8 C0.68 8 -0.64 8 -2 8 C-1.125 1.125 -1.125 1.125 0 0 Z " fill="#000100" transform="translate(282,300)"/>
<path d="M0 0 C0.99 0.33 1.98 0.66 3 1 C1.35 2.65 -0.3 4.3 -2 6 C-1.34 6 -0.68 6 0 6 C0 6.66 0 7.32 0 8 C-1.32 7.67 -2.64 7.34 -4 7 C-3.6875 4.625 -3.6875 4.625 -3 2 C-2.01 1.34 -1.02 0.68 0 0 Z " fill="#25231F" transform="translate(359,186)"/>
<path d="M0 0 C0.99 0.33 1.98 0.66 3 1 C3 2.32 3 3.64 3 5 C1.35 5.33 -0.3 5.66 -2 6 C-2.33 4.68 -2.66 3.36 -3 2 C-2.01 1.34 -1.02 0.68 0 0 Z " fill="#212019" transform="translate(295,176)"/>
<path d="M0 0 C0.66 0.33 1.32 0.66 2 1 C2.625 4.0625 2.625 4.0625 3 7 C1.68 7 0.36 7 -1 7 C-1 4.37886292 -0.68707555 2.49064888 0 0 Z " fill="#4E514E" transform="translate(264,311)"/>
<path d="M0 0 C0.66 0.66 1.32 1.32 2 2 C1.625 4.625 1.625 4.625 1 7 C-0.32 7 -1.64 7 -3 7 C-1.125 2.25 -1.125 2.25 0 0 Z " fill="#33312C" transform="translate(284,190)"/>
<path d="M0 0 C0.99 0.66 1.98 1.32 3 2 C2.67 3.98 2.34 5.96 2 8 C1.67 7.34 1.34 6.68 1 6 C0.01 6.33 -0.98 6.66 -2 7 C-1.34 4.69 -0.68 2.38 0 0 Z " fill="#55534E" transform="translate(302,178)"/>
<path d="M0 0 C0.66 0 1.32 0 2 0 C2.125 5.75 2.125 5.75 1 8 C0.01 7.67 -0.98 7.34 -2 7 C-1.67 6.01 -1.34 5.02 -1 4 C-0.65772583 2.66893378 -0.32248257 1.33599921 0 0 Z " fill="#5E6C52" transform="translate(365,311)"/>
<path d="M0 0 C1.32 0.33 2.64 0.66 4 1 C2.625 2.5 2.625 2.5 1 4 C0.34 4 -0.32 4 -1 4 C-1.33 5.32 -1.66 6.64 -2 8 C-2.33 6.02 -2.66 4.04 -3 2 C-2.01 2 -1.02 2 0 2 C0 1.34 0 0.68 0 0 Z " fill="#6B6C66" transform="translate(343,204)"/>
<path d="M0 0 C0.66 0.33 1.32 0.66 2 1 C2 1.99 2 2.98 2 4 C2.66 4.33 3.32 4.66 4 5 C3.34 5.66 2.68 6.32 2 7 C1.01 7 0.02 7 -1 7 C-0.67 4.69 -0.34 2.38 0 0 Z " fill="#060806" transform="translate(308,311)"/>
<path d="M0 0 C0.66 0.33 1.32 0.66 2 1 C1.00102287 3.99693138 0.34869747 5.02709413 -2 7 C-2.66 7 -3.32 7 -4 7 C-3.43628586 3.73045798 -2.50037734 2.17424117 0 0 Z " fill="#52514A" transform="translate(291,177)"/>
<path d="M0 0 C0.99 0.33 1.98 0.66 3 1 C3.6875 3.0625 3.6875 3.0625 4 5 C2.68 4.67 1.36 4.34 0 4 C0 2.68 0 1.36 0 0 Z " fill="#010201" transform="translate(254,314)"/>
<path d="M0 0 C1.32 0.66 2.64 1.32 4 2 C4 3.32 4 4.64 4 6 C2.35 6 0.7 6 -1 6 C-0.67 4.02 -0.34 2.04 0 0 Z " fill="#30312F" transform="translate(341,303)"/>
<path d="M0 0 C0.33 0 0.66 0 1 0 C1 1.65 1 3.3 1 5 C1.99 5.33 2.98 5.66 4 6 C2.02 6.99 2.02 6.99 0 8 C-0.38063221 5.6739143 -0.71269945 3.33944736 -1 1 C-0.67 0.67 -0.34 0.34 0 0 Z " fill="#595954" transform="translate(286,187)"/>
</svg>
