<?xml version="1.0" ?><!-- Uploaded to: SVG Repo, www.svgrepo.com, Generator: SVG Repo Mixer Tools -->
<svg fill="#000000" width="800px" height="800px" viewBox="0 -0.08 20 20" data-name="Capa 1" id="Capa_1" xmlns="http://www.w3.org/2000/svg"><path d="M18,11.49a3.72,3.72,0,0,0-3-3.12,4.18,4.18,0,0,0-.88-2,4,4,0,0,0-3.62-1.44A4.48,4.48,0,0,0,8,6.27a3.41,3.41,0,0,0-3.84,2.4A3,3,0,0,0,2,11.62,3,3,0,0,0,5,15h9.82a3.65,3.65,0,0,0,2.41-1.18A2.91,2.91,0,0,0,18,11.49Zm-1.24,1.86a3,3,0,0,1-1.89,1H5c-.1,0-2.27,0-2.27-2.68A2.48,2.48,0,0,1,5,9.13l.17,0a.36.36,0,0,0,.22-.44A.35.35,0,0,0,5,8.42H5A2.57,2.57,0,0,1,6.06,7.26,3.08,3.08,0,0,1,8.73,7.2.34.34,0,0,0,9.18,7,.35.35,0,0,0,9,6.54l-.21-.07a3.71,3.71,0,0,1,1.79-.89,3.24,3.24,0,0,1,3,1.19,4,4,0,0,1,.82,2.64.35.35,0,0,0,.35.35A.35.35,0,0,0,15,9.41c0-.11,0-.2,0-.31a3,3,0,0,1,2.27,2.48A2.21,2.21,0,0,1,16.71,13.35Z"/><path d="M12.13,8a.14.14,0,0,0,0-.09.35.35,0,0,0-.41-.28,15.09,15.09,0,0,1-1.52.25.35.35,0,0,0,0,.69h0l.72-.1L10,9.76a.34.34,0,0,0,.27.57.36.36,0,0,0,.27-.12l1-1.27.06.51a.35.35,0,1,0,.69-.08c-.08-.74-.16-1.32-.16-1.32Z"/><path d="M9.59,12.18l-.7.17.89-1.26a.34.34,0,0,0-.08-.49.35.35,0,0,0-.49.08L8.31,12c0-.15-.07-.32-.11-.5a.34.34,0,0,0-.41-.26.35.35,0,0,0-.27.41c.16.71.24,1.26.24,1.28a.33.33,0,0,0,0,.14.36.36,0,0,0,.34.25h.1S9,13,9.74,12.86a.35.35,0,0,0-.15-.68Z"/></svg>